{
  "accessors": [
    {
      "bufferView": 2,
      "componentType": 5126,
      "count": 65532,
      "max": [
        19.755048751831055,
        0.7121562957763672,
        12.944082260131836
      ],
      "min": [
        -19.79724884033203,
        -15.522012710571289,
        -18.002599716186523
      ],
      "type": "VEC3"
    },
    {
      "bufferView": 2,
      "byteOffset": 786384,
      "componentType": 5126,
      "count": 65532,
      "max": [
        1.0,
        1.0,
        1.0
      ],
      "min": [
        -1.0,
        -0.9999966621398926,
        -0.9999608993530273
      ],
      "type": "VEC3"
    },
    {
      "bufferView": 1,
      "componentType": 5126,
      "count": 65532,
      "max": [
        0.9999009966850281,
        0.9063109755516052
      ],
      "min": [
        6.0999998822808266e-05,
        0.00010299999848939478
      ],
      "type": "VEC2"
    },
    {
      "bufferView": 0,
      "componentType": 5125,
      "count": 194583,
      "type": "SCALAR"
    },
    {
      "bufferView": 2,
      "byteOffset": 1572768,
      "componentType": 5126,
      "count": 65533,
      "max": [
        19.755367279052734,
        0.7121562957763672,
        12.944084167480469
      ],
      "min": [
        -19.79724884033203,
        -15.52640438079834,
        -18.003074645996094
      ],
      "type": "VEC3"
    },
    {
      "bufferView": 2,
      "byteOffset": 2359164,
      "componentType": 5126,
      "count": 65533,
      "max": [
        1.0,
        1.0,
        0.9999999403953552
      ],
      "min": [
        -0.9999721050262451,
        -0.9999905228614807,
        -1.0
      ],
      "type": "VEC3"
    },
    {
      "bufferView": 1,
      "byteOffset": 524256,
      "componentType": 5126,
      "count": 65533,
      "max": [
        0.9998869895935059,
        0.9063109755516052
      ],
      "min": [
        6.0999998822808266e-05,
        0.00012700000661425292
      ],
      "type": "VEC2"
    },
    {
      "bufferView": 0,
      "byteOffset": 778332,
      "componentType": 5125,
      "count": 165324,
      "type": "SCALAR"
    },
    {
      "bufferView": 2,
      "byteOffset": 3145560,
      "componentType": 5126,
      "count": 65532,
      "max": [
        19.002241134643555,
        -0.4288959503173828,
        11.1546630859375
      ],
      "min": [
        -18.62872886657715,
        -15.393400192260742,
        -17.99971580505371
      ],
      "type": "VEC3"
    },
    {
      "bufferView": 2,
      "byteOffset": 3931944,
      "componentType": 5126,
      "count": 65532,
      "max": [
        0.9999995231628418,
        0.9999125599861145,
        0.9999266862869263
      ],
      "min": [
        -0.9998796582221985,
        -0.9998716711997986,
        -0.9999905228614807
      ],
      "type": "VEC3"
    },
    {
      "bufferView": 1,
      "byteOffset": 1048520,
      "componentType": 5126,
      "count": 65532,
      "max": [
        0.9999070167541504,
        0.9063109755516052
      ],
      "min": [
        6.0999998822808266e-05,
        0.0002010000025620684
      ],
      "type": "VEC2"
    },
    {
      "bufferView": 0,
      "byteOffset": 1439628,
      "componentType": 5125,
      "count": 171729,
      "type": "SCALAR"
    },
    {
      "bufferView": 2,
      "byteOffset": 4718328,
      "componentType": 5126,
      "count": 65534,
      "max": [
        19.755048751831055,
        0.7121562957763672,
        9.114021301269531
      ],
      "min": [
        -18.597431182861328,
        -13.599508285522461,
        -18.00059700012207
      ],
      "type": "VEC3"
    },
    {
      "bufferView": 2,
      "byteOffset": 5504736,
      "componentType": 5126,
      "count": 65534,
      "max": [
        0.9999262094497681,
        0.9999918937683105,
        0.9999127984046936
      ],
      "min": [
        -0.9999104142189026,
        -0.9999933838844299,
        -0.999965488910675
      ],
      "type": "VEC3"
    },
    {
      "bufferView": 1,
      "byteOffset": 1572776,
      "componentType": 5126,
      "count": 65534,
      "max": [
        0.9999070167541504,
        0.9064329862594604
      ],
      "min": [
        6.0999998822808266e-05,
        0.0030620000325143337
      ],
      "type": "VEC2"
    },
    {
      "bufferView": 0,
      "byteOffset": 2126544,
      "componentType": 5125,
      "count": 162483,
      "type": "SCALAR"
    },
    {
      "bufferView": 2,
      "byteOffset": 6291144,
      "componentType": 5126,
      "count": 65534,
      "max": [
        19.75430679321289,
        0.7121562957763672,
        12.94455337524414
      ],
      "min": [
        -12.071983337402344,
        -15.743745803833008,
        -18.003074645996094
      ],
      "type": "VEC3"
    },
    {
      "bufferView": 2,
      "byteOffset": 7077552,
      "componentType": 5126,
      "count": 65534,
      "max": [
        0.9998957514762878,
        0.9999903440475464,
        1.0
      ],
      "min": [
        -0.9999161958694458,
        -0.9999963045120239,
        -0.9999973773956299
      ],
      "type": "VEC3"
    },
    {
      "bufferView": 1,
      "byteOffset": 2097048,
      "componentType": 5126,
      "count": 65534,
      "max": [
        0.9998999834060669,
        0.9064329862594604
      ],
      "min": [
        6.0999998822808266e-05,
        0.00021300000662449747
      ],
      "type": "VEC2"
    },
    {
      "bufferView": 0,
      "byteOffset": 2776476,
      "componentType": 5125,
      "count": 159069,
      "type": "SCALAR"
    },
    {
      "bufferView": 2,
      "byteOffset": 7863960,
      "componentType": 5126,
      "count": 65533,
      "max": [
        16.117677688598633,
        -0.8469200134277344,
        8.745931625366211
      ],
      "min": [
        -19.0108699798584,
        -14.41193675994873,
        -10.76516342163086
      ],
      "type": "VEC3"
    },
    {
      "bufferView": 2,
      "byteOffset": 8650356,
      "componentType": 5126,
      "count": 65533,
      "max": [
        0.9999067783355713,
        0.9999883770942688,
        0.9997816681861877
      ],
      "min": [
        -0.9999608993530273,
        -0.9999950528144836,
        -0.9999479651451111
      ],
      "type": "VEC3"
    },
    {
      "bufferView": 1,
      "byteOffset": 2621320,
      "componentType": 5126,
      "count": 65533,
      "max": [
        0.999904990196228,
        0.9063109755516052
      ],
      "min": [
        6.0999998822808266e-05,
        0.00011500000255182385
      ],
      "type": "VEC2"
    },
    {
      "bufferView": 0,
      "byteOffset": 3412752,
      "componentType": 5125,
      "count": 157920,
      "type": "SCALAR"
    },
    {
      "bufferView": 2,
      "byteOffset": 9436752,
      "componentType": 5126,
      "count": 65533,
      "max": [
        11.462295532226563,
        -5.373342514038086,
        12.94662857055664
      ],
      "min": [
        -18.9638614654541,
        -14.460460662841797,
        -16.83359718322754
      ],
      "type": "VEC3"
    },
    {
      "bufferView": 2,
      "byteOffset": 10223148,
      "componentType": 5126,
      "count": 65533,
      "max": [
        0.9998947381973267,
        0.9999849200248718,
        0.9999850392341614
      ],
      "min": [
        -0.9997118711471558,
        -0.9999824166297913,
        -0.9998241662979126
      ],
      "type": "VEC3"
    },
    {
      "bufferView": 1,
      "byteOffset": 3145584,
      "componentType": 5126,
      "count": 65533,
      "max": [
        0.9999009966850281,
        0.9064329862594604
      ],
      "min": [
        6.0999998822808266e-05,
        0.003372000064700842
      ],
      "type": "VEC2"
    },
    {
      "bufferView": 0,
      "byteOffset": 4044432,
      "componentType": 5125,
      "count": 167943,
      "type": "SCALAR"
    },
    {
      "bufferView": 2,
      "byteOffset": 11009544,
      "componentType": 5126,
      "count": 65532,
      "max": [
        11.481354713439941,
        -0.19285964965820313,
        12.94662857055664
      ],
      "min": [
        -11.877314567565918,
        -15.606683731079102,
        -16.83968734741211
      ],
      "type": "VEC3"
    },
    {
      "bufferView": 2,
      "byteOffset": 11795928,
      "componentType": 5126,
      "count": 65532,
      "max": [
        0.999965250492096,
        0.9999883770942688,
        0.9999998807907104
      ],
      "min": [
        -0.9999971389770508,
        -0.9999963045120239,
        -0.9998880624771118
      ],
      "type": "VEC3"
    },
    {
      "bufferView": 1,
      "byteOffset": 3669848,
      "componentType": 5126,
      "count": 65532,
      "max": [
        0.9999070167541504,
        0.9064329862594604
      ],
      "min": [
        6.0999998822808266e-05,
        0.01654200069606304
      ],
      "type": "VEC2"
    },
    {
      "bufferView": 0,
      "byteOffset": 4716204,
      "componentType": 5125,
      "count": 138369,
      "type": "SCALAR"
    },
    {
      "bufferView": 2,
      "byteOffset": 12582312,
      "componentType": 5126,
      "count": 65532,
      "max": [
        19.035686492919922,
        -1.0056934356689453,
        8.792566299438477
      ],
      "min": [
        -11.037470817565918,
        -15.606683731079102,
        -11.776281356811523
      ],
      "type": "VEC3"
    },
    {
      "bufferView": 2,
      "byteOffset": 13368696,
      "componentType": 5126,
      "count": 65532,
      "max": [
        0.9999973177909851,
        0.9999993443489075,
        0.999902069568634
      ],
      "min": [
        -0.9998549222946167,
        -0.9999877214431763,
        -0.999951183795929
      ],
      "type": "VEC3"
    },
    {
      "bufferView": 1,
      "byteOffset": 4194104,
      "componentType": 5126,
      "count": 65532,
      "max": [
        0.9999060034751892,
        0.9066770076751709
      ],
      "min": [
        6.0999998822808266e-05,
        0.00019999999494757503
      ],
      "type": "VEC2"
    },
    {
      "bufferView": 0,
      "byteOffset": 5269680,
      "componentType": 5125,
      "count": 154158,
      "type": "SCALAR"
    },
    {
      "bufferView": 2,
      "byteOffset": 14155080,
      "componentType": 5126,
      "count": 14510,
      "max": [
        7.498948097229004,
        -6.662128448486328,
        8.690530776977539
      ],
      "min": [
        -11.276702880859375,
        -14.481803894042969,
        -13.99068832397461
      ],
      "type": "VEC3"
    },
    {
      "bufferView": 2,
      "byteOffset": 14329200,
      "componentType": 5126,
      "count": 14510,
      "max": [
        0.999847948551178,
        0.9999776482582092,
        0.9997522830963135
      ],
      "min": [
        -0.9992058873176575,
        -0.9997920393943787,
        -0.9998948574066162
      ],
      "type": "VEC3"
    },
    {
      "bufferView": 1,
      "byteOffset": 4718360,
      "componentType": 5126,
      "count": 14510,
      "max": [
        0.9998810291290283,
        0.9064329862594604
      ],
      "min": [
        6.0999998822808266e-05,
        0.010231000371277332
      ],
      "type": "VEC2"
    },
    {
      "bufferView": 0,
      "byteOffset": 5886312,
      "componentType": 5125,
      "count": 28422,
      "type": "SCALAR"
    }
  ],
  "asset": {
    "extras": {
      "author": "Epic_Tree_Store (https://sketchfab.com/johngreenstone)",
      "license": "CC-BY-4.0 (http://creativecommons.org/licenses/by/4.0/)",
      "source": "https://sketchfab.com/3d-models/grass-segment-2-bee378d21f2f47358d7bca514bb52deb",
      "title": "Grass segment 2"
    },
    "generator": "Sketchfab-12.65.0",
    "version": "2.0"
  },
  "bufferViews": [
    {
      "buffer": 0,
      "byteLength": 6000000,
      "name": "floatBufferViews",
      "target": 34963
    },
    {
      "buffer": 0,
      "byteLength": 4834440,
      "byteOffset": 6000000,
      "byteStride": 8,
      "name": "floatBufferViews",
      "target": 34962
    },
    {
      "buffer": 0,
      "byteLength": 14503320,
      "byteOffset": 10834440,
      "byteStride": 12,
      "name": "floatBufferViews",
      "target": 34962
    }
  ],
  "buffers": [
    {
      "byteLength": 25337760,
      "uri": "scene.bin"
    }
  ],
  "extensionsUsed": [
    "KHR_materials_unlit"
  ],
  "images": [
    {
      "uri": "textures/mesh_Material_u1_v1_baseColor.jpeg"
    }
  ],
  "materials": [
    {
      "doubleSided": true,
      "extensions": {
        "KHR_materials_unlit": {}
      },
      "name": "mesh_Material_u1_v1",
      "pbrMetallicRoughness": {
        "baseColorTexture": {
          "index": 0
        },
        "metallicFactor": 0.0
      }
    }
  ],
  "meshes": [
    {
      "name": "Object_0",
      "primitives": [
        {
          "attributes": {
            "NORMAL": 1,
            "POSITION": 0,
            "TEXCOORD_0": 2
          },
          "indices": 3,
          "material": 0,
          "mode": 4
        }
      ]
    },
    {
      "name": "Object_1",
      "primitives": [
        {
          "attributes": {
            "NORMAL": 5,
            "POSITION": 4,
            "TEXCOORD_0": 6
          },
          "indices": 7,
          "material": 0,
          "mode": 4
        }
      ]
    },
    {
      "name": "Object_2",
      "primitives": [
        {
          "attributes": {
            "NORMAL": 9,
            "POSITION": 8,
            "TEXCOORD_0": 10
          },
          "indices": 11,
          "material": 0,
          "mode": 4
        }
      ]
    },
    {
      "name": "Object_3",
      "primitives": [
        {
          "attributes": {
            "NORMAL": 13,
            "POSITION": 12,
            "TEXCOORD_0": 14
          },
          "indices": 15,
          "material": 0,
          "mode": 4
        }
      ]
    },
    {
      "name": "Object_4",
      "primitives": [
        {
          "attributes": {
            "NORMAL": 17,
            "POSITION": 16,
            "TEXCOORD_0": 18
          },
          "indices": 19,
          "material": 0,
          "mode": 4
        }
      ]
    },
    {
      "name": "Object_5",
      "primitives": [
        {
          "attributes": {
            "NORMAL": 21,
            "POSITION": 20,
            "TEXCOORD_0": 22
          },
          "indices": 23,
          "material": 0,
          "mode": 4
        }
      ]
    },
    {
      "name": "Object_6",
      "primitives": [
        {
          "attributes": {
            "NORMAL": 25,
            "POSITION": 24,
            "TEXCOORD_0": 26
          },
          "indices": 27,
          "material": 0,
          "mode": 4
        }
      ]
    },
    {
      "name": "Object_7",
      "primitives": [
        {
          "attributes": {
            "NORMAL": 29,
            "POSITION": 28,
            "TEXCOORD_0": 30
          },
          "indices": 31,
          "material": 0,
          "mode": 4
        }
      ]
    },
    {
      "name": "Object_8",
      "primitives": [
        {
          "attributes": {
            "NORMAL": 33,
            "POSITION": 32,
            "TEXCOORD_0": 34
          },
          "indices": 35,
          "material": 0,
          "mode": 4
        }
      ]
    },
    {
      "name": "Object_9",
      "primitives": [
        {
          "attributes": {
            "NORMAL": 37,
            "POSITION": 36,
            "TEXCOORD_0": 38
          },
          "indices": 39,
          "material": 0,
          "mode": 4
        }
      ]
    }
  ],
  "nodes": [
    {
      "children": [
        1
      ],
      "matrix": [
        1.0,
        0.0,
        0.0,
        0.0,
        0.0,
        -0.9999688267707825,
        -0.007898437790572865,
        0.0,
        0.0,
        0.007898437790572865,
        -0.9999688267707825,
        0.0,
        0.0,
        -10.023790359497072,
        4.928221225738523,
        1.0
      ],
      "name": "Sketchfab_model"
    },
    {
      "children": [
        2,
        3,
        4,
        5,
        6,
        7,
        8,
        9,
        10,
        11
      ],
      "name": "mesh.obj.cleaner.materialmerger.gles"
    },
    {
      "mesh": 0,
      "name": "Object_2"
    },
    {
      "mesh": 1,
      "name": "Object_3"
    },
    {
      "mesh": 2,
      "name": "Object_4"
    },
    {
      "mesh": 3,
      "name": "Object_5"
    },
    {
      "mesh": 4,
      "name": "Object_6"
    },
    {
      "mesh": 5,
      "name": "Object_7"
    },
    {
      "mesh": 6,
      "name": "Object_8"
    },
    {
      "mesh": 7,
      "name": "Object_9"
    },
    {
      "mesh": 8,
      "name": "Object_10"
    },
    {
      "mesh": 9,
      "name": "Object_11"
    }
  ],
  "samplers": [
    {
      "magFilter": 9729,
      "minFilter": 9987,
      "wrapS": 10497,
      "wrapT": 10497
    }
  ],
  "scene": 0,
  "scenes": [
    {
      "name": "Sketchfab_Scene",
      "nodes": [
        0
      ]
    }
  ],
  "textures": [
    {
      "sampler": 0,
      "source": 0
    }
  ]
}
